<mxfile host="app.diagrams.net" agent="Mozilla/5.0 (Windows NT 10.0; Win64; x64) AppleWebKit/537.36 (KHTML, like Gecko) Chrome/132.0.0.0 Safari/537.36" version="26.0.10">
  <diagram name="Pagina-1" id="QsRCfSb-adKqSfCgI1SM">
    <mxGraphModel dx="2074" dy="3436" grid="1" gridSize="10" guides="1" tooltips="1" connect="1" arrows="1" fold="1" page="1" pageScale="1" pageWidth="827" pageHeight="1169" math="0" shadow="0">
      <root>
        <mxCell id="0" />
        <mxCell id="1" parent="0" />
        <mxCell id="BkEHO-o-tZisy2gENUgN-249" value="" style="edgeStyle=orthogonalEdgeStyle;rounded=0;orthogonalLoop=1;jettySize=auto;html=1;" parent="1" source="BkEHO-o-tZisy2gENUgN-1" target="BkEHO-o-tZisy2gENUgN-247" edge="1">
          <mxGeometry relative="1" as="geometry" />
        </mxCell>
        <mxCell id="BkEHO-o-tZisy2gENUgN-1" value="START" style="ellipse;whiteSpace=wrap;html=1;" parent="1" vertex="1">
          <mxGeometry x="300" y="-1520" width="120" height="80" as="geometry" />
        </mxCell>
        <mxCell id="BkEHO-o-tZisy2gENUgN-20" value="&lt;p style=&quot;box-sizing: border-box; margin-top: 0px; margin-bottom: 1rem; color: rgb(29, 33, 37); font-family: -apple-system, BlinkMacSystemFont, &amp;quot;Segoe UI&amp;quot;, Roboto, &amp;quot;Helvetica Neue&amp;quot;, Arial, &amp;quot;Noto Sans&amp;quot;, &amp;quot;Liberation Sans&amp;quot;, sans-serif, &amp;quot;Apple Color Emoji&amp;quot;, &amp;quot;Segoe UI Emoji&amp;quot;, &amp;quot;Segoe UI Symbol&amp;quot;, &amp;quot;Noto Color Emoji&amp;quot;; font-size: 15px; font-style: normal; font-variant-ligatures: normal; font-variant-caps: normal; font-weight: 400; letter-spacing: normal; orphans: 2; text-align: left; text-indent: 0px; text-transform: none; widows: 2; word-spacing: 0px; -webkit-text-stroke-width: 0px; white-space: normal; background-color: rgb(255, 255, 255); text-decoration-thickness: initial; text-decoration-style: initial; text-decoration-color: initial;&quot;&gt;Scrivere un algoritmo che consenta all’utente di inserire una lista di numeri interi (la quantità è scelta dall’utente). L&#39;algoritmo&amp;nbsp;deve:&lt;/p&gt;&lt;ol id=&quot;yui_3_18_1_1_1738329301609_146&quot; style=&quot;box-sizing: border-box; margin-top: 0px; margin-bottom: 1rem; color: rgb(29, 33, 37); font-family: -apple-system, BlinkMacSystemFont, &amp;quot;Segoe UI&amp;quot;, Roboto, &amp;quot;Helvetica Neue&amp;quot;, Arial, &amp;quot;Noto Sans&amp;quot;, &amp;quot;Liberation Sans&amp;quot;, sans-serif, &amp;quot;Apple Color Emoji&amp;quot;, &amp;quot;Segoe UI Emoji&amp;quot;, &amp;quot;Segoe UI Symbol&amp;quot;, &amp;quot;Noto Color Emoji&amp;quot;; font-size: 15px; font-style: normal; font-variant-ligatures: normal; font-variant-caps: normal; font-weight: 400; letter-spacing: normal; orphans: 2; text-align: left; text-indent: 0px; text-transform: none; widows: 2; word-spacing: 0px; -webkit-text-stroke-width: 0px; white-space: normal; background-color: rgb(255, 255, 255); text-decoration-thickness: initial; text-decoration-style: initial; text-decoration-color: initial;&quot;&gt;&lt;li style=&quot;box-sizing: border-box;&quot;&gt;sommare i numeri pari e maggiori della media di tutti i numeri inseriti.&lt;/li&gt;&lt;li style=&quot;box-sizing: border-box;&quot;&gt;sommare i numeri dispari o minori della media.&lt;/li&gt;&lt;li id=&quot;yui_3_18_1_1_1738329301609_145&quot; style=&quot;box-sizing: border-box;&quot;&gt;mostrare in output entrambe le somme e indicare quale somma è maggiore.&lt;/li&gt;&lt;/ol&gt;" style="text;whiteSpace=wrap;html=1;" parent="1" vertex="1">
          <mxGeometry x="480" y="-1220" width="560" height="160" as="geometry" />
        </mxCell>
        <mxCell id="BkEHO-o-tZisy2gENUgN-189" value="" style="edgeStyle=orthogonalEdgeStyle;rounded=0;orthogonalLoop=1;jettySize=auto;html=1;" parent="1" source="BkEHO-o-tZisy2gENUgN-184" target="BkEHO-o-tZisy2gENUgN-186" edge="1">
          <mxGeometry relative="1" as="geometry" />
        </mxCell>
        <mxCell id="BkEHO-o-tZisy2gENUgN-184" value="read n_list_i" style="shape=parallelogram;perimeter=parallelogramPerimeter;whiteSpace=wrap;html=1;fixedSize=1;" parent="1" vertex="1">
          <mxGeometry x="300" y="-1280" width="120" height="60" as="geometry" />
        </mxCell>
        <mxCell id="BkEHO-o-tZisy2gENUgN-195" value="" style="edgeStyle=orthogonalEdgeStyle;rounded=0;orthogonalLoop=1;jettySize=auto;html=1;" parent="1" source="BkEHO-o-tZisy2gENUgN-186" target="BkEHO-o-tZisy2gENUgN-191" edge="1">
          <mxGeometry relative="1" as="geometry" />
        </mxCell>
        <mxCell id="BkEHO-o-tZisy2gENUgN-186" value="i = n_list_i" style="rounded=0;whiteSpace=wrap;html=1;" parent="1" vertex="1">
          <mxGeometry x="300" y="-1180" width="120" height="60" as="geometry" />
        </mxCell>
        <mxCell id="BkEHO-o-tZisy2gENUgN-200" value="" style="edgeStyle=orthogonalEdgeStyle;rounded=0;orthogonalLoop=1;jettySize=auto;html=1;" parent="1" source="BkEHO-o-tZisy2gENUgN-190" target="BkEHO-o-tZisy2gENUgN-199" edge="1">
          <mxGeometry relative="1" as="geometry" />
        </mxCell>
        <mxCell id="BkEHO-o-tZisy2gENUgN-190" value="pari = 0" style="rounded=0;whiteSpace=wrap;html=1;" parent="1" vertex="1">
          <mxGeometry x="300" y="-960" width="120" height="60" as="geometry" />
        </mxCell>
        <mxCell id="BkEHO-o-tZisy2gENUgN-196" value="" style="edgeStyle=orthogonalEdgeStyle;rounded=0;orthogonalLoop=1;jettySize=auto;html=1;" parent="1" source="BkEHO-o-tZisy2gENUgN-191" target="BkEHO-o-tZisy2gENUgN-190" edge="1">
          <mxGeometry relative="1" as="geometry" />
        </mxCell>
        <mxCell id="BkEHO-o-tZisy2gENUgN-191" value="dispari = 0" style="rounded=0;whiteSpace=wrap;html=1;" parent="1" vertex="1">
          <mxGeometry x="300" y="-1070" width="120" height="60" as="geometry" />
        </mxCell>
        <mxCell id="BkEHO-o-tZisy2gENUgN-259" value="" style="edgeStyle=orthogonalEdgeStyle;rounded=0;orthogonalLoop=1;jettySize=auto;html=1;" parent="1" source="BkEHO-o-tZisy2gENUgN-197" target="BkEHO-o-tZisy2gENUgN-258" edge="1">
          <mxGeometry relative="1" as="geometry" />
        </mxCell>
        <mxCell id="BkEHO-o-tZisy2gENUgN-197" value="somma += N" style="rounded=0;whiteSpace=wrap;html=1;" parent="1" vertex="1">
          <mxGeometry x="300" y="-260" width="120" height="60" as="geometry" />
        </mxCell>
        <mxCell id="BkEHO-o-tZisy2gENUgN-244" value="" style="edgeStyle=orthogonalEdgeStyle;rounded=0;orthogonalLoop=1;jettySize=auto;html=1;" parent="1" source="BkEHO-o-tZisy2gENUgN-199" target="BkEHO-o-tZisy2gENUgN-218" edge="1">
          <mxGeometry relative="1" as="geometry" />
        </mxCell>
        <mxCell id="BkEHO-o-tZisy2gENUgN-199" value="somma = 0" style="rounded=0;whiteSpace=wrap;html=1;" parent="1" vertex="1">
          <mxGeometry x="300" y="-860" width="120" height="60" as="geometry" />
        </mxCell>
        <mxCell id="BkEHO-o-tZisy2gENUgN-253" value="" style="edgeStyle=orthogonalEdgeStyle;rounded=0;orthogonalLoop=1;jettySize=auto;html=1;" parent="1" source="BkEHO-o-tZisy2gENUgN-208" target="BkEHO-o-tZisy2gENUgN-251" edge="1">
          <mxGeometry relative="1" as="geometry" />
        </mxCell>
        <mxCell id="BkEHO-o-tZisy2gENUgN-254" value="TRUE" style="edgeLabel;html=1;align=center;verticalAlign=middle;resizable=0;points=[];" parent="BkEHO-o-tZisy2gENUgN-253" vertex="1" connectable="0">
          <mxGeometry x="-0.3195" y="-2" relative="1" as="geometry">
            <mxPoint as="offset" />
          </mxGeometry>
        </mxCell>
        <mxCell id="BkEHO-o-tZisy2gENUgN-256" style="edgeStyle=orthogonalEdgeStyle;rounded=0;orthogonalLoop=1;jettySize=auto;html=1;entryX=0;entryY=0.5;entryDx=0;entryDy=0;exitX=0;exitY=0.5;exitDx=0;exitDy=0;" parent="1" source="BkEHO-o-tZisy2gENUgN-208" target="BkEHO-o-tZisy2gENUgN-239" edge="1">
          <mxGeometry relative="1" as="geometry">
            <Array as="points">
              <mxPoint x="210" y="-460" />
              <mxPoint x="210" y="-584" />
            </Array>
          </mxGeometry>
        </mxCell>
        <mxCell id="BkEHO-o-tZisy2gENUgN-257" value="FALSE" style="edgeLabel;html=1;align=center;verticalAlign=middle;resizable=0;points=[];" parent="BkEHO-o-tZisy2gENUgN-256" vertex="1" connectable="0">
          <mxGeometry x="-0.6393" y="2" relative="1" as="geometry">
            <mxPoint as="offset" />
          </mxGeometry>
        </mxCell>
        <mxCell id="BkEHO-o-tZisy2gENUgN-208" value="N % 1 == 0" style="rhombus;whiteSpace=wrap;html=1;" parent="1" vertex="1">
          <mxGeometry x="320" y="-500" width="80" height="80" as="geometry" />
        </mxCell>
        <mxCell id="BkEHO-o-tZisy2gENUgN-245" value="" style="edgeStyle=orthogonalEdgeStyle;rounded=0;orthogonalLoop=1;jettySize=auto;html=1;" parent="1" source="BkEHO-o-tZisy2gENUgN-218" target="BkEHO-o-tZisy2gENUgN-239" edge="1">
          <mxGeometry relative="1" as="geometry" />
        </mxCell>
        <mxCell id="BkEHO-o-tZisy2gENUgN-246" value="TRUE" style="edgeLabel;html=1;align=center;verticalAlign=middle;resizable=0;points=[];" parent="BkEHO-o-tZisy2gENUgN-245" vertex="1" connectable="0">
          <mxGeometry x="-0.0795" y="-2" relative="1" as="geometry">
            <mxPoint as="offset" />
          </mxGeometry>
        </mxCell>
        <mxCell id="BkEHO-o-tZisy2gENUgN-262" style="edgeStyle=orthogonalEdgeStyle;rounded=0;orthogonalLoop=1;jettySize=auto;html=1;" parent="1" source="BkEHO-o-tZisy2gENUgN-218" edge="1">
          <mxGeometry relative="1" as="geometry">
            <mxPoint x="530" y="-704" as="targetPoint" />
          </mxGeometry>
        </mxCell>
        <mxCell id="BkEHO-o-tZisy2gENUgN-263" value="FALSE" style="edgeLabel;html=1;align=center;verticalAlign=middle;resizable=0;points=[];" parent="BkEHO-o-tZisy2gENUgN-262" vertex="1" connectable="0">
          <mxGeometry x="-0.0842" relative="1" as="geometry">
            <mxPoint as="offset" />
          </mxGeometry>
        </mxCell>
        <mxCell id="BkEHO-o-tZisy2gENUgN-218" value="n_list_ i &amp;gt; 0" style="rhombus;whiteSpace=wrap;html=1;" parent="1" vertex="1">
          <mxGeometry x="320" y="-744" width="80" height="80" as="geometry" />
        </mxCell>
        <mxCell id="BkEHO-o-tZisy2gENUgN-265" value="" style="edgeStyle=orthogonalEdgeStyle;rounded=0;orthogonalLoop=1;jettySize=auto;html=1;" parent="1" source="BkEHO-o-tZisy2gENUgN-225" target="BkEHO-o-tZisy2gENUgN-264" edge="1">
          <mxGeometry relative="1" as="geometry" />
        </mxCell>
        <mxCell id="BkEHO-o-tZisy2gENUgN-225" value="media = somma / i" style="rounded=0;whiteSpace=wrap;html=1;" parent="1" vertex="1">
          <mxGeometry x="530" y="-734" width="120" height="60" as="geometry" />
        </mxCell>
        <mxCell id="BkEHO-o-tZisy2gENUgN-273" style="edgeStyle=orthogonalEdgeStyle;rounded=0;orthogonalLoop=1;jettySize=auto;html=1;" parent="1" source="BkEHO-o-tZisy2gENUgN-227" edge="1">
          <mxGeometry relative="1" as="geometry">
            <mxPoint x="590" y="-240" as="targetPoint" />
          </mxGeometry>
        </mxCell>
        <mxCell id="BkEHO-o-tZisy2gENUgN-275" value="TRUE" style="edgeLabel;html=1;align=center;verticalAlign=middle;resizable=0;points=[];" parent="BkEHO-o-tZisy2gENUgN-273" vertex="1" connectable="0">
          <mxGeometry x="-0.2621" y="1" relative="1" as="geometry">
            <mxPoint as="offset" />
          </mxGeometry>
        </mxCell>
        <mxCell id="BkEHO-o-tZisy2gENUgN-274" style="edgeStyle=orthogonalEdgeStyle;rounded=0;orthogonalLoop=1;jettySize=auto;html=1;" parent="1" source="BkEHO-o-tZisy2gENUgN-227" edge="1">
          <mxGeometry relative="1" as="geometry">
            <mxPoint x="740" y="-350" as="targetPoint" />
          </mxGeometry>
        </mxCell>
        <mxCell id="BkEHO-o-tZisy2gENUgN-276" value="FALSE" style="edgeLabel;html=1;align=center;verticalAlign=middle;resizable=0;points=[];" parent="BkEHO-o-tZisy2gENUgN-274" vertex="1" connectable="0">
          <mxGeometry x="-0.2126" y="1" relative="1" as="geometry">
            <mxPoint as="offset" />
          </mxGeometry>
        </mxCell>
        <mxCell id="BkEHO-o-tZisy2gENUgN-227" value="list[i] %2 == 0&lt;br&gt;AND&amp;nbsp;&lt;br&gt;list[i] &amp;gt; media" style="rhombus;whiteSpace=wrap;html=1;" parent="1" vertex="1">
          <mxGeometry x="510" y="-390" width="160" height="80" as="geometry" />
        </mxCell>
        <mxCell id="BkEHO-o-tZisy2gENUgN-252" value="" style="edgeStyle=orthogonalEdgeStyle;rounded=0;orthogonalLoop=1;jettySize=auto;html=1;" parent="1" source="BkEHO-o-tZisy2gENUgN-239" target="BkEHO-o-tZisy2gENUgN-208" edge="1">
          <mxGeometry relative="1" as="geometry" />
        </mxCell>
        <mxCell id="BkEHO-o-tZisy2gENUgN-239" value="Read N" style="shape=parallelogram;perimeter=parallelogramPerimeter;whiteSpace=wrap;html=1;fixedSize=1;" parent="1" vertex="1">
          <mxGeometry x="300" y="-614" width="120" height="60" as="geometry" />
        </mxCell>
        <mxCell id="BkEHO-o-tZisy2gENUgN-248" value="" style="edgeStyle=orthogonalEdgeStyle;rounded=0;orthogonalLoop=1;jettySize=auto;html=1;" parent="1" source="BkEHO-o-tZisy2gENUgN-247" target="BkEHO-o-tZisy2gENUgN-184" edge="1">
          <mxGeometry relative="1" as="geometry" />
        </mxCell>
        <mxCell id="BkEHO-o-tZisy2gENUgN-247" value="list = []" style="rounded=0;whiteSpace=wrap;html=1;" parent="1" vertex="1">
          <mxGeometry x="300" y="-1380" width="120" height="60" as="geometry" />
        </mxCell>
        <mxCell id="BkEHO-o-tZisy2gENUgN-255" value="" style="edgeStyle=orthogonalEdgeStyle;rounded=0;orthogonalLoop=1;jettySize=auto;html=1;" parent="1" source="BkEHO-o-tZisy2gENUgN-251" target="BkEHO-o-tZisy2gENUgN-197" edge="1">
          <mxGeometry relative="1" as="geometry" />
        </mxCell>
        <mxCell id="BkEHO-o-tZisy2gENUgN-251" value="list.append(N)" style="rounded=0;whiteSpace=wrap;html=1;" parent="1" vertex="1">
          <mxGeometry x="300" y="-360" width="120" height="60" as="geometry" />
        </mxCell>
        <mxCell id="BkEHO-o-tZisy2gENUgN-261" style="edgeStyle=orthogonalEdgeStyle;rounded=0;orthogonalLoop=1;jettySize=auto;html=1;entryX=0;entryY=0.5;entryDx=0;entryDy=0;" parent="1" source="BkEHO-o-tZisy2gENUgN-258" target="BkEHO-o-tZisy2gENUgN-218" edge="1">
          <mxGeometry relative="1" as="geometry">
            <mxPoint x="180" y="-590" as="targetPoint" />
            <Array as="points">
              <mxPoint x="181" y="-120" />
              <mxPoint x="181" y="-704" />
            </Array>
          </mxGeometry>
        </mxCell>
        <mxCell id="BkEHO-o-tZisy2gENUgN-258" value="n_list_i -= 1" style="rounded=0;whiteSpace=wrap;html=1;" parent="1" vertex="1">
          <mxGeometry x="300" y="-150" width="120" height="60" as="geometry" />
        </mxCell>
        <mxCell id="BkEHO-o-tZisy2gENUgN-270" value="" style="edgeStyle=orthogonalEdgeStyle;rounded=0;orthogonalLoop=1;jettySize=auto;html=1;" parent="1" source="BkEHO-o-tZisy2gENUgN-264" target="BkEHO-o-tZisy2gENUgN-269" edge="1">
          <mxGeometry relative="1" as="geometry" />
        </mxCell>
        <mxCell id="BkEHO-o-tZisy2gENUgN-271" value="TRUE" style="edgeLabel;html=1;align=center;verticalAlign=middle;resizable=0;points=[];" parent="BkEHO-o-tZisy2gENUgN-270" vertex="1" connectable="0">
          <mxGeometry x="-0.3176" y="1" relative="1" as="geometry">
            <mxPoint as="offset" />
          </mxGeometry>
        </mxCell>
        <mxCell id="BkEHO-o-tZisy2gENUgN-290" style="edgeStyle=orthogonalEdgeStyle;rounded=0;orthogonalLoop=1;jettySize=auto;html=1;" parent="1" source="BkEHO-o-tZisy2gENUgN-264" edge="1">
          <mxGeometry relative="1" as="geometry">
            <mxPoint x="770" y="-584" as="targetPoint" />
          </mxGeometry>
        </mxCell>
        <mxCell id="BkEHO-o-tZisy2gENUgN-291" value="FALSE" style="edgeLabel;html=1;align=center;verticalAlign=middle;resizable=0;points=[];" parent="BkEHO-o-tZisy2gENUgN-290" vertex="1" connectable="0">
          <mxGeometry x="-0.1351" relative="1" as="geometry">
            <mxPoint as="offset" />
          </mxGeometry>
        </mxCell>
        <mxCell id="BkEHO-o-tZisy2gENUgN-264" value="i &amp;gt; 0" style="rhombus;whiteSpace=wrap;html=1;" parent="1" vertex="1">
          <mxGeometry x="550" y="-624" width="80" height="80" as="geometry" />
        </mxCell>
        <mxCell id="BkEHO-o-tZisy2gENUgN-272" value="" style="edgeStyle=orthogonalEdgeStyle;rounded=0;orthogonalLoop=1;jettySize=auto;html=1;" parent="1" source="BkEHO-o-tZisy2gENUgN-269" target="BkEHO-o-tZisy2gENUgN-227" edge="1">
          <mxGeometry relative="1" as="geometry" />
        </mxCell>
        <mxCell id="BkEHO-o-tZisy2gENUgN-269" value="i -= 1" style="rounded=0;whiteSpace=wrap;html=1;" parent="1" vertex="1">
          <mxGeometry x="530" y="-500" width="120" height="60" as="geometry" />
        </mxCell>
        <mxCell id="BkEHO-o-tZisy2gENUgN-287" value="" style="edgeStyle=orthogonalEdgeStyle;rounded=0;orthogonalLoop=1;jettySize=auto;html=1;" parent="1" source="BkEHO-o-tZisy2gENUgN-277" target="BkEHO-o-tZisy2gENUgN-281" edge="1">
          <mxGeometry relative="1" as="geometry" />
        </mxCell>
        <mxCell id="BkEHO-o-tZisy2gENUgN-277" value="pari += N" style="rounded=0;whiteSpace=wrap;html=1;" parent="1" vertex="1">
          <mxGeometry x="530" y="-240" width="120" height="60" as="geometry" />
        </mxCell>
        <mxCell id="BkEHO-o-tZisy2gENUgN-288" style="edgeStyle=orthogonalEdgeStyle;rounded=0;orthogonalLoop=1;jettySize=auto;html=1;entryX=1;entryY=0.5;entryDx=0;entryDy=0;" parent="1" source="BkEHO-o-tZisy2gENUgN-278" target="BkEHO-o-tZisy2gENUgN-281" edge="1">
          <mxGeometry relative="1" as="geometry">
            <Array as="points">
              <mxPoint x="800" y="-80" />
            </Array>
          </mxGeometry>
        </mxCell>
        <mxCell id="BkEHO-o-tZisy2gENUgN-278" value="dispari += N" style="rounded=0;whiteSpace=wrap;html=1;" parent="1" vertex="1">
          <mxGeometry x="740" y="-380" width="120" height="60" as="geometry" />
        </mxCell>
        <mxCell id="BkEHO-o-tZisy2gENUgN-289" style="edgeStyle=orthogonalEdgeStyle;rounded=0;orthogonalLoop=1;jettySize=auto;html=1;entryX=0;entryY=0.5;entryDx=0;entryDy=0;" parent="1" source="BkEHO-o-tZisy2gENUgN-281" target="BkEHO-o-tZisy2gENUgN-264" edge="1">
          <mxGeometry relative="1" as="geometry">
            <Array as="points">
              <mxPoint x="490" y="-80" />
              <mxPoint x="490" y="-584" />
            </Array>
          </mxGeometry>
        </mxCell>
        <mxCell id="BkEHO-o-tZisy2gENUgN-281" value="" style="ellipse;whiteSpace=wrap;html=1;aspect=fixed;" parent="1" vertex="1">
          <mxGeometry x="580" y="-90" width="20" height="20" as="geometry" />
        </mxCell>
        <mxCell id="BkEHO-o-tZisy2gENUgN-295" value="" style="edgeStyle=orthogonalEdgeStyle;rounded=0;orthogonalLoop=1;jettySize=auto;html=1;" parent="1" source="BkEHO-o-tZisy2gENUgN-292" target="BkEHO-o-tZisy2gENUgN-293" edge="1">
          <mxGeometry relative="1" as="geometry" />
        </mxCell>
        <mxCell id="BkEHO-o-tZisy2gENUgN-298" value="FALSE" style="edgeLabel;html=1;align=center;verticalAlign=middle;resizable=0;points=[];" parent="BkEHO-o-tZisy2gENUgN-295" vertex="1" connectable="0">
          <mxGeometry x="-0.1747" y="3" relative="1" as="geometry">
            <mxPoint as="offset" />
          </mxGeometry>
        </mxCell>
        <mxCell id="BkEHO-o-tZisy2gENUgN-296" value="" style="edgeStyle=orthogonalEdgeStyle;rounded=0;orthogonalLoop=1;jettySize=auto;html=1;" parent="1" source="BkEHO-o-tZisy2gENUgN-292" target="BkEHO-o-tZisy2gENUgN-294" edge="1">
          <mxGeometry relative="1" as="geometry" />
        </mxCell>
        <mxCell id="BkEHO-o-tZisy2gENUgN-297" value="TRUE" style="edgeLabel;html=1;align=center;verticalAlign=middle;resizable=0;points=[];" parent="BkEHO-o-tZisy2gENUgN-296" vertex="1" connectable="0">
          <mxGeometry x="-0.1216" y="3" relative="1" as="geometry">
            <mxPoint as="offset" />
          </mxGeometry>
        </mxCell>
        <mxCell id="BkEHO-o-tZisy2gENUgN-292" value="pari &amp;gt; dispari" style="rhombus;whiteSpace=wrap;html=1;" parent="1" vertex="1">
          <mxGeometry x="770" y="-624" width="80" height="80" as="geometry" />
        </mxCell>
        <mxCell id="BkEHO-o-tZisy2gENUgN-299" style="edgeStyle=orthogonalEdgeStyle;rounded=0;orthogonalLoop=1;jettySize=auto;html=1;" parent="1" source="BkEHO-o-tZisy2gENUgN-293" edge="1">
          <mxGeometry relative="1" as="geometry">
            <mxPoint x="980" y="-790" as="targetPoint" />
          </mxGeometry>
        </mxCell>
        <mxCell id="BkEHO-o-tZisy2gENUgN-293" value="Write pari, dispari,&lt;br&gt;&quot;dispari è maggiore&quot;" style="shape=parallelogram;perimeter=parallelogramPerimeter;whiteSpace=wrap;html=1;fixedSize=1;" parent="1" vertex="1">
          <mxGeometry x="920" y="-614" width="120" height="60" as="geometry" />
        </mxCell>
        <mxCell id="BkEHO-o-tZisy2gENUgN-300" style="edgeStyle=orthogonalEdgeStyle;rounded=0;orthogonalLoop=1;jettySize=auto;html=1;entryX=0;entryY=0.5;entryDx=0;entryDy=0;" parent="1" source="BkEHO-o-tZisy2gENUgN-294" target="BkEHO-o-tZisy2gENUgN-301" edge="1">
          <mxGeometry relative="1" as="geometry">
            <mxPoint x="810" y="-800" as="targetPoint" />
          </mxGeometry>
        </mxCell>
        <mxCell id="BkEHO-o-tZisy2gENUgN-294" value="Write pari, dispari,&amp;nbsp;&lt;div&gt;&quot;pari è maggiore&quot;&lt;/div&gt;" style="shape=parallelogram;perimeter=parallelogramPerimeter;whiteSpace=wrap;html=1;fixedSize=1;" parent="1" vertex="1">
          <mxGeometry x="750" y="-750" width="120" height="60" as="geometry" />
        </mxCell>
        <mxCell id="BkEHO-o-tZisy2gENUgN-303" value="" style="edgeStyle=orthogonalEdgeStyle;rounded=0;orthogonalLoop=1;jettySize=auto;html=1;" parent="1" source="BkEHO-o-tZisy2gENUgN-301" target="BkEHO-o-tZisy2gENUgN-302" edge="1">
          <mxGeometry relative="1" as="geometry" />
        </mxCell>
        <mxCell id="BkEHO-o-tZisy2gENUgN-301" value="" style="ellipse;whiteSpace=wrap;html=1;aspect=fixed;" parent="1" vertex="1">
          <mxGeometry x="970" y="-810" width="20" height="20" as="geometry" />
        </mxCell>
        <mxCell id="BkEHO-o-tZisy2gENUgN-302" value="END" style="ellipse;whiteSpace=wrap;html=1;" parent="1" vertex="1">
          <mxGeometry x="920" y="-960" width="120" height="80" as="geometry" />
        </mxCell>
      </root>
    </mxGraphModel>
  </diagram>
</mxfile>
